<svg width="44" height="18" viewBox="0 0 44 18" fill="none" xmlns="http://www.w3.org/2000/svg">
<rect width="44" height="18" rx="9" fill="url(#paint0_linear_4641_34828)"/>
<path d="M2.95172 8.83081C3.12891 11.3408 5.27974 13.3829 7.85385 13.495C9.67 13.573 11.2942 12.7347 12.2687 11.4139C12.6723 10.8729 12.4557 10.5123 11.7815 10.6341C11.4517 10.6926 11.1121 10.717 10.7577 10.7023C8.35095 10.6049 6.38222 8.61149 6.37238 6.25747C6.36746 5.62388 6.50035 5.02441 6.74152 4.47855C7.0073 3.8742 6.68738 3.58665 6.07215 3.84496C4.12311 4.65888 2.7893 6.60351 2.95172 8.83081Z" stroke="white" stroke-linecap="round" stroke-linejoin="round"/>
<path d="M30.542 4.23613C33.1243 1.59507 37.3032 1.58693 39.8758 4.21795C42.4483 6.84896 42.4404 11.1228 39.858 13.7639C37.2756 16.4049 33.0967 16.4131 30.5242 13.7821C27.9516 11.151 27.9596 6.87718 30.542 4.23613Z" fill="white"/>
<path d="M38.9968 4.93066C41.108 7.2382 41.1001 10.9881 38.9791 13.3063" stroke="url(#paint1_linear_4641_34828)" stroke-width="1.2" stroke-linecap="round"/>
<defs>
<linearGradient id="paint0_linear_4641_34828" x1="5.37434" y1="1.28616" x2="13.3185" y2="25.4571" gradientUnits="userSpaceOnUse">
<stop stop-color="#FFC226"/>
<stop offset="1" stop-color="#F84119"/>
</linearGradient>
<linearGradient id="paint1_linear_4641_34828" x1="39.174" y1="5.52913" x2="41.9723" y2="6.19281" gradientUnits="userSpaceOnUse">
<stop stop-color="#FFC226"/>
<stop offset="1" stop-color="#F84119"/>
</linearGradient>
</defs>
</svg>
